<?xml version="1.0" standalone="no"?>
<!DOCTYPE svg PUBLIC "-//W3C//DTD SVG 20010904//EN"
 "http://www.w3.org/TR/2001/REC-SVG-20010904/DTD/svg10.dtd">
<svg version="1.0" xmlns="http://www.w3.org/2000/svg"
 width="1600.000000pt" height="1600.000000pt" viewBox="0 0 1600.000000 1600.000000"
 preserveAspectRatio="xMidYMid meet">

<g transform="translate(0.000000,1600.000000) scale(0.100000,-0.100000)"
fill="#000000" stroke="none">
<path d="M4645 11463 c-196 -17 -440 -56 -638 -102 -164 -39 -455 -139 -592
-205 -38 -18 -101 -48 -140 -65 -38 -18 -72 -35 -75 -39 -3 -4 -41 -25 -84
-47 -76 -39 -402 -250 -433 -280 -8 -9 -31 -28 -51 -43 -93 -69 -253 -214
-358 -324 -179 -188 -312 -361 -454 -588 -72 -116 -196 -348 -230 -430 -7 -19
-29 -71 -48 -115 -65 -154 -159 -472 -181 -610 -86 -554 -90 -849 -15 -1300
33 -203 117 -509 169 -622 8 -17 15 -33 15 -36 0 -12 129 -284 157 -332 10
-16 33 -57 52 -90 37 -65 160 -257 171 -265 3 -3 17 -21 30 -40 167 -243 539
-602 815 -787 81 -54 262 -165 305 -187 159 -81 289 -145 310 -151 14 -4 30
-11 35 -15 20 -14 332 -120 430 -146 374 -96 669 -130 1060 -121 257 6 346 14
546 47 326 54 573 134 864 278 294 145 532 320 782 573 205 209 363 410 509
651 48 80 51 87 36 101 -20 18 -129 87 -136 87 -3 0 -34 -44 -69 -98 -35 -54
-71 -107 -80 -118 -209 -259 -331 -380 -532 -529 -387 -287 -778 -455 -1267
-541 -115 -20 -521 -29 -677 -15 -155 14 -416 70 -581 123 -69 22 -129 44
-135 48 -5 3 -32 15 -60 24 -90 33 -328 156 -430 224 -97 64 -239 177 -338
269 -38 35 -197 219 -272 314 -18 23 -94 140 -143 220 -38 62 -152 290 -152
303 0 3 -9 25 -19 49 -69 150 -162 520 -196 777 -23 171 -31 701 -16 970 48
827 270 1512 636 1965 95 118 272 293 382 377 307 237 659 385 1058 445 184
27 621 25 806 -5 229 -36 458 -106 679 -207 125 -57 148 -69 250 -133 100 -64
135 -87 149 -100 8 -8 38 -31 67 -53 29 -21 101 -87 161 -146 92 -92 139 -144
228 -255 55 -68 180 -282 215 -368 12 -30 26 -64 31 -75 33 -71 93 -279 112
-382 l22 -123 88 0 89 0 -6 88 c-26 362 -69 938 -81 1087 -11 136 -75 1047
-75 1071 0 2 -40 4 -88 4 l-88 0 -23 -77 c-59 -202 -207 -356 -340 -354 -64 0
-326 89 -503 170 -26 11 -50 21 -54 21 -3 0 -68 22 -143 49 -380 136 -736 193
-1185 189 -127 -1 -249 -3 -271 -5z"/>
<path d="M8267 11323 c-3 -5 -4 -46 -3 -93 l1 -85 145 -6 c479 -20 736 -169
814 -472 37 -141 37 -163 34 -2722 -3 -2363 -5 -2514 -21 -2585 -22 -90 -70
-197 -122 -265 -113 -151 -334 -229 -695 -244 l-155 -6 0 -90 0 -90 2659 0
2659 0 45 140 c24 77 73 232 109 345 35 113 77 243 93 290 15 47 40 126 55
175 23 81 69 225 212 672 25 78 43 147 41 154 -4 11 -127 57 -156 59 -7 0 -24
-26 -38 -57 -64 -148 -82 -186 -145 -308 -77 -151 -119 -228 -129 -235 -3 -3
-9 -12 -12 -20 -16 -40 -146 -212 -223 -296 -197 -213 -418 -341 -705 -408
-278 -64 -356 -68 -1335 -64 l-850 3 -55 26 c-72 34 -113 76 -142 147 l-23 57
-3 2563 c-2 2207 0 2577 12 2661 51 341 191 475 566 546 47 9 147 19 223 22
l138 6 -3 91 -3 91 -1492 3 c-820 1 -1494 -1 -1496 -5z"/>
</g>
</svg>
