<?xml version="1.0" standalone="no"?>
<!DOCTYPE svg PUBLIC "-//W3C//DTD SVG 20010904//EN"
 "http://www.w3.org/TR/2001/REC-SVG-20010904/DTD/svg10.dtd">
<svg version="1.0" xmlns="http://www.w3.org/2000/svg"
 width="1600.000000pt" height="1600.000000pt" viewBox="0 0 1600.000000 1600.000000"
 preserveAspectRatio="xMidYMid meet">

<g transform="translate(0.000000,1600.000000) scale(0.100000,-0.100000)"
fill="#000000" stroke="none">
<path d="M1818 11424 c-115 -17 -274 -64 -385 -112 -443 -192 -798 -611 -907
-1072 -42 -178 -41 -147 -41 -2250 0 -1891 1 -2021 18 -2115 45 -252 139 -472
285 -669 213 -286 505 -490 837 -586 240 -70 28 -65 2895 -65 l2585 0 67 33
c78 38 129 94 159 172 18 48 19 84 19 785 0 714 -1 736 -20 789 -26 69 -86
137 -147 167 l-48 24 -2340 5 -2340 5 0 1465 0 1465 2340 5 2340 5 48 24 c61
30 121 98 147 167 19 53 20 75 20 789 0 701 -1 737 -19 785 -29 75 -81 134
-153 169 l-61 31 -2606 -1 c-2145 -1 -2621 -3 -2693 -15z m5222 -969 l0 -675
-2447 -2 -2448 -3 0 -1775 0 -1775 2448 -3 2447 -2 0 -675 0 -675 -2582 3
-2583 2 -93 23 c-239 56 -438 167 -612 342 -94 94 -109 113 -177 216 -92 142
-153 297 -185 469 -20 106 -19 4047 1 4155 17 98 71 260 111 341 162 322 474
581 802 665 167 43 83 42 2761 43 l2557 1 0 -675z"/>
<path d="M8989 11425 c-261 -41 -519 -154 -719 -313 -282 -226 -477 -515 -561
-832 -55 -211 -53 -105 -56 -2170 -3 -1266 -1 -1955 6 -2055 30 -416 160 -716
435 -1002 215 -224 436 -359 715 -438 218 -61 106 -58 2111 -62 1990 -5 2190
-1 2370 41 331 77 579 219 810 462 250 265 392 563 430 904 8 75 10 464 8
1375 l-3 1270 -28 57 c-33 68 -96 122 -172 149 -53 18 -100 19 -1470 19 -1372
0 -1416 -1 -1465 -19 -70 -27 -130 -78 -165 -142 l-30 -54 -3 -755 c-2 -701
-1 -758 15 -804 24 -66 91 -139 161 -173 l57 -28 558 -5 558 -5 0 -155 0 -155
-1463 0 -1463 0 0 1465 0 1465 1462 0 1463 0 3 -140 c3 -125 6 -146 29 -195
41 -89 108 -148 199 -174 50 -15 139 -16 790 -14 728 3 734 3 781 25 62 29
128 91 158 150 l25 48 3 385 c2 249 -1 422 -8 490 -38 345 -180 641 -435 909
-227 238 -475 378 -820 463 l-90 22 -2055 2 c-1679 2 -2071 0 -2141 -11z
m4231 -319 c262 -63 462 -177 648 -371 194 -201 303 -413 347 -677 13 -75 15
-162 13 -448 l-3 -355 -677 -3 -678 -2 -2 262 -3 263 -1775 0 -1775 0 0 -1775
0 -1775 1775 0 1775 0 3 468 2 467 -680 0 -680 0 0 680 0 680 1360 0 1360 0 0
-1247 c0 -1358 1 -1323 -57 -1507 -58 -184 -157 -347 -306 -502 -154 -161
-313 -263 -510 -329 -206 -69 -89 -66 -2309 -62 l-2003 3 -90 21 c-234 56
-442 171 -608 336 -190 189 -296 384 -360 659 l-21 93 -4 1935 c-2 1316 0
1971 8 2047 18 190 75 378 159 522 202 344 565 589 941 634 19 2 944 3 2055 3
1909 -2 2024 -3 2095 -20z"/>
</g>
</svg>
